<?xml version="1.0" encoding="utf-8"?>

<!DOCTYPE svg PUBLIC "-//W3C//DTD SVG 1.1//EN" "http://www.w3.org/Graphics/SVG/1.1/DTD/svg11.dtd">
<!-- Uploaded to: SVG Repo, www.svgrepo.com, Generator: SVG Repo Mixer Tools -->
<svg version="1.1" id="_x32_" xmlns="http://www.w3.org/2000/svg" xmlns:xlink="http://www.w3.org/1999/xlink" 
	 viewBox="0 0 512 512"  xml:space="preserve">
<style type="text/css">
	.st0{fill:#000000;}
</style>
<g>
	<path class="st0" d="M84.188,0H43.081C34.309,0,27.19,7.118,27.19,15.899v380.686c0,8.781,7.119,15.899,15.891,15.899h41.107
		c8.772,0,15.89-7.118,15.89-15.899V15.899C100.078,7.118,92.96,0,84.188,0z M63.63,362.856c-7.354,0-13.313-5.96-13.313-13.314
		c0-7.353,5.96-13.313,13.313-13.313c7.354,0,13.322,5.96,13.322,13.313C76.952,356.896,70.984,362.856,63.63,362.856z
		 M63.63,71.721c-7.354,0-13.313-5.968-13.313-13.322c0-7.353,5.96-13.314,13.313-13.314c7.354,0,13.322,5.96,13.322,13.314
		C76.952,65.753,70.984,71.721,63.63,71.721z"/>
	<path class="st0" d="M180.372,393.731c8.772,0,15.89-7.11,15.89-15.891V34.652c0-8.78-7.118-15.899-15.89-15.899h-41.108
		c-8.772,0-15.89,7.119-15.89,15.899V377.84c0,8.781,7.118,15.891,15.89,15.891H180.372z M159.821,55.856
		c7.354,0,13.314,5.96,13.314,13.314c0,7.353-5.96,13.313-13.314,13.313c-7.353,0-13.322-5.96-13.322-13.313
		C146.5,61.816,152.468,55.856,159.821,55.856z M159.821,323.201c7.354,0,13.314,5.96,13.314,13.313
		c0,7.354-5.96,13.322-13.314,13.322c-7.353,0-13.322-5.968-13.322-13.322C146.5,329.162,152.468,323.201,159.821,323.201z"/>
	<path class="st0" d="M235.447,376.691h41.107c8.772,0,15.89-7.119,15.89-15.9V51.693c0-8.78-7.118-15.9-15.89-15.9h-41.107
		c-8.78,0-15.891,7.119-15.891,15.9v309.098C219.556,369.572,226.666,376.691,235.447,376.691z M255.996,67.692
		c7.354,0,13.322,5.96,13.322,13.313c0,7.354-5.968,13.322-13.322,13.322c-7.354,0-13.313-5.968-13.313-13.322
		C242.683,73.652,248.642,67.692,255.996,67.692z M255.996,311.365c7.354,0,13.322,5.96,13.322,13.314
		c0,7.353-5.968,13.313-13.322,13.313c-7.354,0-13.313-5.96-13.313-13.313C242.683,317.325,248.642,311.365,255.996,311.365z"/>
	<path class="st0" d="M331.63,361.194h41.108c8.772,0,15.89-7.118,15.89-15.899V67.189c0-8.781-7.118-15.899-15.89-15.899H331.63
		c-8.781,0-15.89,7.118-15.89,15.899v278.106C315.739,354.076,322.849,361.194,331.63,361.194z M352.18,80.72
		c7.353,0,13.322,5.96,13.322,13.313c0,7.354-5.969,13.322-13.322,13.322c-7.354,0-13.314-5.968-13.314-13.322
		C338.866,86.681,344.826,80.72,352.18,80.72z M352.18,300.586c7.353,0,13.322,5.969,13.322,13.322
		c0,7.354-5.969,13.322-13.322,13.322c-7.354,0-13.314-5.968-13.314-13.322C338.866,306.555,344.826,300.586,352.18,300.586z"/>
	<path class="st0" d="M468.92,65.376h-41.107c-8.772,0-15.89,7.118-15.89,15.899v249.943c0,8.772,7.118,15.89,15.89,15.89h41.107
		c8.772,0,15.89-7.118,15.89-15.89V81.275C484.81,72.494,477.692,65.376,468.92,65.376z M448.362,317.443
		c-7.354,0-13.314-5.969-13.314-13.322c0-7.354,5.96-13.322,13.314-13.322c7.354,0,13.322,5.968,13.322,13.322
		C461.684,311.474,455.716,317.443,448.362,317.443z M448.362,121.685c-7.354,0-13.314-5.96-13.314-13.313
		c0-7.354,5.96-13.322,13.314-13.322c7.354,0,13.322,5.968,13.322,13.322C461.684,115.725,455.716,121.685,448.362,121.685z"/>
	<path class="st0" d="M377.908,394.453c-14.363,1.225-25.015,13.867-23.79,28.238c1.234,14.371,13.876,25.023,28.239,23.79
		c14.372-1.226,25.024-13.868,23.798-28.239C404.921,403.872,392.279,393.228,377.908,394.453z"/>
	<polygon class="st0" points="133.447,431.749 135.117,451.266 347.151,433.118 345.481,413.609 	"/>
	<path class="st0" d="M377.908,455.195c-14.363,1.225-25.015,13.867-23.79,28.238c1.234,14.372,13.876,25.016,28.239,23.79
		c14.372-1.226,25.024-13.876,23.798-28.239C404.921,464.614,392.279,453.969,377.908,455.195z"/>
	
		<rect x="230.505" y="386.767" transform="matrix(-0.0853 -0.9964 0.9964 -0.0853 -230.59 774.6406)" class="st0" width="19.588" height="212.809"/>
</g>
</svg>