<?xml version="1.0" encoding="iso-8859-1"?>
<!-- Uploaded to: SVG Repo, www.svgrepo.com, Generator: SVG Repo Mixer Tools -->
<!DOCTYPE svg PUBLIC "-//W3C//DTD SVG 1.1//EN" "http://www.w3.org/Graphics/SVG/1.1/DTD/svg11.dtd">
<svg fill="#000000" version="1.1" id="Layer_1" xmlns="http://www.w3.org/2000/svg" xmlns:xlink="http://www.w3.org/1999/xlink" 
	 width="800px" height="800px" viewBox="0 0 792 792" xml:space="preserve">
<path d="M700.383,6.596C698.093,2.527,693.838,0,689.279,0c-2.255,0-4.517,0.637-6.536,1.843l-12.723,7.592l-1.777-4.237
	c-1.054-2.512-3.831-3.983-6.432-3.172c-2.981,0.931-4.449,4.189-3.271,7l2.436,5.806l-6.835,4.078l-1.776-4.236
	c-1.053-2.51-3.829-3.983-6.429-3.172c-2.981,0.93-4.452,4.189-3.272,7l2.437,5.807l-6.841,4.082l-1.77-4.233
	c-1.051-2.512-3.824-3.988-6.426-3.182c-2.983,0.926-4.457,4.184-3.282,6.997l2.432,5.815l-6.834,4.079l-1.769-4.232
	c-1.051-2.512-3.824-3.988-6.425-3.182c-2.983,0.925-4.457,4.183-3.281,6.995l2.431,5.814l-6.836,4.08l-1.778-4.247
	c-1.051-2.512-3.825-3.986-6.426-3.179c-2.983,0.927-4.456,4.186-3.279,6.998l2.438,5.824l-6.835,4.078l-1.776-4.244
	c-1.052-2.511-3.828-3.987-6.428-3.177c-2.982,0.928-4.454,4.186-3.277,6.998l2.438,5.822l-4.778,2.852l-4.422,14.073
	c-1.012,3.223-2.831,6.168-5.258,8.521L353.602,294.492c-5.65,5.473-14.542,6.445-20.859,1.758c-0.649-0.481-1.262-1.01-1.839-1.587
	c-9.84-9.84-5.578-18.726-5.091-19.651l0.29-0.602c0.031-0.079,3.244-7.904,10.491-17.243c6.214-8.001,6.751-18.784,1.367-27.472
	c-5.268-8.502-14.939-12.73-24.579-10.788c-1.157,0.219-2.246,0.543-3.25,0.969c-26.204,11.197-45.847,36.161-60.049,76.314
	c-8.96,25.311-28.806,44.884-54.444,53.698l-37.761,12.955c-6.505,1.417-12.876,3.606-18.945,6.509l-7.394,2.882l0.708,0.708
	c-6.181,3.672-11.862,8.087-16.954,13.18c-16.11,16.111-25.072,37.467-25.288,60.217c-0.226,23.603,9.586,46.199,26.277,62.891
	l61.274,61.273c16.834,16.834,38.946,25.251,61.059,25.251s44.225-8.417,61.059-25.251c5.144-5.145,9.615-10.91,13.29-17.141
	c14.006-18.441,21.924-44.003,26.104-62.228c4.101-17.826,16.776-32.542,33.903-39.362c17.075-6.796,40.627-18.346,50.808-28.526
	c8.635-8.635,12.432-17.322,11.951-27.337c-0.396-8.291-4.356-15.636-10.337-19.166c-4.979-2.939-10.796-3.045-16.414-0.288
	c-1.299,0.649-2.387,1.17-3.212,1.535c-18.891,8.606-31.708,9.153-39.183,1.678c-6.834-6.835-4.709-15.82-1.656-22.237
	c1.878-3.946,4.481-7.506,7.535-10.633l226.047-231.559l8.026-8.026c4.075-4.076,9.452-6.716,15.205-7.059
	c6.664-0.397,12.997,2.016,17.671,6.69l4.694,4.695l56.006-92.192C702.53,15.36,702.632,10.595,700.383,6.596z M410.043,387.501
	c0.91-0.403,2.153-0.997,3.563-1.702c2.43-1.192,4.553-1.22,6.485-0.078c2.947,1.739,4.997,5.935,5.226,10.686
	c0.338,7.061-2.326,12.882-8.91,19.466c-7.227,7.226-26.674,18.005-47.294,26.212c-20.309,8.087-35.339,25.55-40.208,46.715
	c-3.944,17.198-11.334,41.206-24.176,58.164l-0.248,0.248l-0.339,0.58c-3.259,5.577-7.243,10.737-11.841,15.335
	c-29.602,29.604-77.769,29.604-107.371,0l-62.263-62.263c-14.344-14.34-22.241-33.407-22.24-53.688
	c0.001-20.277,7.9-39.343,22.24-53.683c5.972-5.973,12.868-10.886,20.499-14.605l0.247-0.121c5.432-2.601,11.136-4.551,16.957-5.795
	l38.657-13.225c28.667-9.854,50.859-31.752,60.887-60.081c13.177-37.254,30.943-60.218,54.301-70.198
	c0.211-0.09,0.575-0.218,1.17-0.331c6.534-1.315,11.368,2.26,13.714,6.047c2.438,3.935,3.524,10.096-0.74,15.586
	c-7.513,9.681-11.146,17.881-11.818,19.478c-0.59,1.163-2.264,4.893-2.427,10.071c-0.171,5.438,1.324,13.619,9.418,21.714
	c3.892,3.891,8.784,6.43,14.457,7.582l-38.141,36.946l36.861,36.86l14.987-15.353c-0.187,6.538,1.764,13.218,7.517,18.971
	C375.438,403.267,401.521,391.384,410.043,387.501z M336.618,368.59l-21.909-21.907c0.001,0,260.29-252.169,260.594-252.491
	l14.767,14.766L336.618,368.59z M691.197,13.932l-49.442,81.393c-5.456-3.669-11.875-5.642-18.599-5.642
	c-8.924,0-17.313,3.476-23.624,9.786l-2.103,2.102l-16.257-16.257c0.434-0.997,0.827-2.012,1.154-3.051l3.231-10.281l102.529-61.187
	c0.416-0.248,0.807-0.369,1.192-0.369c0.774,0,1.584,0.516,2.015,1.283C691.701,12.429,691.67,13.156,691.197,13.932z
	 M232.757,486.208l-35.68-35.681l7.374-7.374l35.68,35.681L232.757,486.208z M257.972,452.604c2.036,2.035,2.036,5.336,0,7.373
	c-1.02,1.017-2.353,1.526-3.688,1.526s-2.669-0.509-3.687-1.526l-27.286-27.286c-2.036-2.036-2.036-5.336,0-7.373
	c2.036-2.036,5.336-2.036,7.373,0L257.972,452.604z M267.401,448.384c-1.334,0-2.669-0.508-3.688-1.525l-27.286-27.286
	c-2.036-2.036-2.036-5.336,0-7.373c2.036-2.036,5.336-2.036,7.373,0l27.286,27.286c2.036,2.035,2.036,5.336,0,7.373
	C270.069,447.876,268.736,448.384,267.401,448.384z M301.127,409.445c2.036,2.035,2.036,5.336,0,7.373
	c-1.02,1.017-2.353,1.526-3.688,1.526c-1.334,0-2.669-0.509-3.687-1.526l-27.285-27.285c-2.036-2.036-2.036-5.336,0-7.373
	c2.036-2.036,5.336-2.036,7.373,0L301.127,409.445z M313.583,396.99c2.036,2.035,2.036,5.337,0,7.373
	c-1.019,1.017-2.354,1.526-3.687,1.526c-1.335,0-2.669-0.509-3.688-1.526l-27.285-27.286c-2.036-2.036-2.036-5.338,0-7.373
	c2.037-2.036,5.337-2.035,7.373,0L313.583,396.99z M240.21,505.817c-10.777,0-15.603,17.898-15.603,35.638
	c0,18.353,10.989,32.973,11.457,33.587l4.146,5.435l4.146-5.435c0.468-0.614,11.457-15.234,11.457-33.587
	C255.813,523.716,250.988,505.817,240.21,505.817z M240.2,561.732c-2.486-5.009-5.164-12.267-5.164-20.278
	c0-14.023,3.279-22.48,5.176-24.788c1.897,2.308,5.176,10.765,5.176,24.788C245.386,549.423,242.692,556.703,240.2,561.732z
	 M281.42,516.335c0.571,0,1.148-0.032,1.716-0.098c4.021-0.455,7.624-2.447,10.146-5.612c2.522-3.166,3.66-7.123,3.204-11.143
	c-0.867-7.665-7.333-13.446-15.04-13.446c-0.569,0-1.147,0.032-1.715,0.098c-4.021,0.455-7.623,2.447-10.145,5.612
	c-2.522,3.166-3.66,7.123-3.204,11.143C267.248,510.555,273.713,516.335,281.42,516.335z M277.74,498.244
	c0.786-0.986,1.909-1.606,3.163-1.749c0.183-0.021,0.364-0.031,0.543-0.031c2.397,0,4.408,1.803,4.679,4.193
	c0.142,1.252-0.212,2.485-0.999,3.472c-0.786,0.987-1.909,1.607-3.163,1.75c-0.183,0.021-0.364,0.031-0.543,0.031
	c-2.397,0-4.408-1.803-4.679-4.193C276.599,500.464,276.954,499.229,277.74,498.244z M282.213,520.652
	c-0.57,0-1.147,0.032-1.715,0.097c-8.3,0.939-14.288,8.456-13.349,16.756c0.867,7.665,7.333,13.445,15.041,13.445
	c0.569,0,1.147-0.032,1.715-0.097c4.021-0.455,7.624-2.447,10.146-5.612c2.522-3.166,3.66-7.123,3.204-11.143
	C296.387,526.433,289.921,520.652,282.213,520.652z M285.895,538.744c-0.786,0.986-1.91,1.607-3.162,1.749
	c-2.613,0.293-4.932-1.592-5.223-4.161c-0.293-2.586,1.574-4.93,4.16-5.223c0.183-0.021,0.364-0.03,0.543-0.03
	c2.397,0,4.41,1.801,4.679,4.193C287.035,536.524,286.681,537.758,285.895,538.744z"/>
</svg>