<?xml version="1.0" encoding="iso-8859-1"?>
<!-- Uploaded to: SVG Repo, www.svgrepo.com, Generator: SVG Repo Mixer Tools -->
<!DOCTYPE svg PUBLIC "-//W3C//DTD SVG 1.1//EN" "http://www.w3.org/Graphics/SVG/1.1/DTD/svg11.dtd">
<svg fill="#000000" height="400px" width="400px" version="1.1" id="Capa_1" xmlns="http://www.w3.org/2000/svg" xmlns:xlink="http://www.w3.org/1999/xlink" 
	 viewBox="0 0 447 447" xml:space="preserve">
<path d="M439.5,112.079H7.5c-4.143,0-7.5,3.358-7.5,7.5v207.843c0,4.142,3.357,7.5,7.5,7.5h432c4.143,0,7.5-3.358,7.5-7.5V119.579
	C447,115.437,443.643,112.079,439.5,112.079z M432,127.079V162H15v-34.921H432z M50.97,177v73h-8.118v-73H50.97z M58.47,265
	c4.143,0,7.5-3.358,7.5-7.5V177H73v80.5c0,4.142,3.357,7.5,7.5,7.5H84v54.921H55V265H58.47z M96.118,250H88v-73h8.118V250z M99,265
	h4.618c4.142,0,7.5-3.358,7.5-7.5V177H128v142.921H99V265z M143,177h17.882v80.5c0,4.142,3.357,7.5,7.5,7.5H172v54.921h-29V177z
	 M184,250h-8.118v-73H184V250z M187,265h4.5c4.143,0,7.5-3.358,7.5-7.5V177h5v80.5c0,4.142,3.357,7.5,7.5,7.5h4.5v54.921h-29V265z
	 M227.118,250H219v-73h8.118V250z M231,265h3.618c4.143,0,7.5-3.358,7.5-7.5V177H248v80.5c0,4.142,3.357,7.5,7.5,7.5h4.5v54.921h-29
	V265z M271.118,250H263v-73h8.118V250z M275,265h3.618c4.143,0,7.5-3.358,7.5-7.5V177H304v142.921h-29V265z M319,177h16.733v80.5
	c0,4.142,3.357,7.5,7.5,7.5H348v54.921h-29V177z M358.852,250h-8.118v-73h8.118V250z M363,265h3.352c4.143,0,7.5-3.358,7.5-7.5V177
	h7.03v80.5c0,4.142,3.357,7.5,7.5,7.5H392v54.921h-29V265z M404,250h-8.118v-73H404V250z M15,177h12.852v80.5
	c0,4.142,3.357,7.5,7.5,7.5H40v54.921H15V177z M407,319.921V265h4.5c4.143,0,7.5-3.358,7.5-7.5V177h13v142.921H407z"/>
</svg>